<svg width="373" height="316" viewBox="0 0 373 316" fill="none" xmlns="http://www.w3.org/2000/svg">
<g filter="url(#filter0_d)">
<path d="M164.914 81.578C171.719 74.6836 183.37 80.5253 181.917 90.1029L172.366 153.056C171.716 157.339 173.899 161.554 177.771 163.496L234.692 192.033C243.352 196.375 241.397 209.261 231.839 210.839L169.015 221.209C164.741 221.914 161.407 225.292 160.757 229.575L151.206 292.529C149.753 302.106 136.893 304.229 132.439 295.626L103.163 239.082C101.171 235.235 96.9281 233.108 92.6537 233.813L29.8301 244.183C20.2722 245.761 14.2794 234.186 21.0845 227.292L65.8146 181.976C68.8579 178.892 69.5698 174.2 67.578 170.353L38.302 113.809C33.848 105.206 43.0043 95.9299 51.6641 100.271L108.585 128.809C112.458 130.75 117.14 129.977 120.184 126.894L164.914 81.578Z" fill="#F2EE83"/>
</g>
<path d="M334.741 105.154C339.584 105.113 341.65 111.294 337.756 114.174L308.995 135.443C307.253 136.731 306.539 138.994 307.225 141.049L318.566 174.975C320.101 179.568 314.862 183.443 310.919 180.629L281.803 159.848C280.04 158.59 277.667 158.61 275.926 159.898L247.164 181.167C243.27 184.047 237.966 180.261 239.423 175.642L250.19 141.53C250.842 139.464 250.09 137.213 248.327 135.955L219.211 115.174C215.268 112.36 217.23 106.145 222.073 106.104L257.843 105.803C260.009 105.784 261.917 104.374 262.569 102.308L273.336 68.1953C274.794 63.5763 281.31 63.5214 282.846 68.1151L294.186 102.041C294.873 104.096 296.805 105.474 298.971 105.456L334.741 105.154Z" fill="#F4ED48"/>
<path d="M249.572 237.254C256.185 235.755 260.852 243.595 256.383 248.695L239.073 268.447C237.074 270.728 236.771 274.036 238.322 276.642L251.759 299.209C255.228 305.035 249.214 311.897 242.983 309.222L218.848 298.863C216.062 297.667 212.822 298.401 210.823 300.682L193.512 320.434C189.043 325.534 180.659 321.935 181.277 315.182L183.671 289.027C183.948 286.007 182.248 283.153 179.462 281.957L155.327 271.597C149.096 268.922 149.927 259.837 156.541 258.338L182.155 252.533C185.113 251.862 187.302 249.364 187.579 246.344L189.973 220.189C190.592 213.436 199.49 211.42 202.959 217.246L216.395 239.813C217.947 242.419 220.999 243.729 223.957 243.059L249.572 237.254Z" fill="#D1CE7E"/>
<defs>
<filter id="filter0_d" x="-24.2125" y="29.2923" width="305.195" height="300.732" filterUnits="userSpaceOnUse" color-interpolation-filters="sRGB">
<feFlood flood-opacity="0" result="BackgroundImageFix"/>
<feColorMatrix in="SourceAlpha" type="matrix" values="0 0 0 0 0 0 0 0 0 0 0 0 0 0 0 0 0 0 127 0"/>
<feOffset dy="4"/>
<feGaussianBlur stdDeviation="2"/>
<feColorMatrix type="matrix" values="0 0 0 0 0 0 0 0 0 0 0 0 0 0 0 0 0 0 0.25 0"/>
<feBlend mode="normal" in2="BackgroundImageFix" result="effect1_dropShadow"/>
<feBlend mode="normal" in="SourceGraphic" in2="effect1_dropShadow" result="shape"/>
</filter>
</defs>
</svg>
