<svg width="514" height="322" viewBox="0 0 514 322" fill="none" xmlns="http://www.w3.org/2000/svg">
<path d="M42.1678 247.932C31.4088 269.45 24.7531 295.346 7.27892 312.82C2.63223 317.467 0.179402 320.046 8.39003 316.82C31.4152 307.775 53.5071 298.246 75.0567 285.932C81.5832 282.202 106.7 259.373 115.612 263.043C135.386 271.185 160.537 273.379 181.501 276.82C214.912 282.306 251.714 281.661 285.39 278.82C352.999 273.119 418.522 270.657 474.834 228.043C488.438 217.748 493.048 200.424 501.057 185.932C508.433 172.583 510.168 158.903 510.168 143.932C510.168 112.942 511.569 65.7221 486.057 43.1538C477.059 35.1945 467.56 31.6547 456.168 28.5983C414.928 17.5338 373.958 9.938 331.39 5.9316C299.281 2.90956 305.439 5.81646 273.168 5.48716C260.093 5.35374 208.999 -0.041631 197.057 5.48716C175.591 15.4249 151.215 21.036 128.612 27.9316C98.1143 37.236 71.5396 66.426 60.1678 95.4872C48.3568 125.671 36.1678 163.21 36.1678 195.932C36.1678 206.685 34.1678 217.018 34.1678 227.932C34.1678 232.846 43.3693 246.73 40.1678 249.932" stroke="white" stroke-width="6" stroke-linecap="round" stroke-linejoin="round"/>
</svg>
