<svg width="57" height="56" viewBox="0 0 57 56" fill="none" xmlns="http://www.w3.org/2000/svg">
<path d="M0.000100692 28.09C0.0906856 12.6045 12.7273 0.0900427 28.4438 0.315123C43.7979 0.540203 56.2533 12.8746 56.0721 28.4952C55.891 44.1608 43.1185 56.3151 27.5832 56.045C11.6403 55.7299 -0.0451917 42.8553 0.000100692 28.09ZM20.2911 21.6527C20.2911 23.7685 20.2911 25.8392 20.2911 27.865C20.2911 28.1801 20.4723 28.2251 20.744 28.2251C21.4234 28.2251 22.1481 28.2251 22.8275 28.2251C23.5975 28.2251 23.5975 28.2251 23.5975 28.9454C23.5975 33.9421 23.5975 38.9389 23.5975 43.9807C23.5975 44.2058 23.5975 44.4309 23.5975 44.656C25.8621 44.656 28.0361 44.656 30.2554 44.656C30.2554 44.3859 30.2554 44.1608 30.2554 43.9357C30.2554 38.8939 30.2554 33.8971 30.2554 28.8553C30.2554 28.3601 30.3913 28.1801 30.8895 28.2251C31.7954 28.2701 32.7465 28.2251 33.6524 28.2251C34.1506 28.2251 34.6488 28.2251 35.147 28.2251C35.3735 25.9743 35.5547 23.8585 35.7811 21.6077C33.9694 21.6077 32.2936 21.6077 30.5725 21.6077C30.5272 21.5177 30.5272 21.4277 30.5272 21.3827C30.5272 20.5724 30.5272 19.7621 30.5272 18.9518C30.5272 17.9164 31.0707 17.4212 32.1124 17.3762C33.0636 17.3762 34.06 17.3762 35.0112 17.3762C35.2376 17.3762 35.4641 17.3762 35.6905 17.3762C35.6905 15.4405 35.6905 13.5949 35.6905 11.6592C33.4259 11.7042 31.1613 11.7042 28.942 11.8843C28.0814 11.9743 27.2661 12.3344 26.5415 12.7396C24.458 14 23.688 16.0708 23.5975 18.3666C23.5522 19.1769 23.5975 20.0322 23.5975 20.8425C23.5975 21.6527 23.5975 21.6527 22.8275 21.6527C22.0122 21.6527 21.197 21.6527 20.2911 21.6527Z" fill="white"/>
</svg>
