<svg width="57" height="56" viewBox="0 0 57 56" fill="none" xmlns="http://www.w3.org/2000/svg">
<path d="M0.928101 27.865C0.973393 12.3794 13.4741 0.2701 28.4659 3.78909e-06C44.1824 -0.270093 57.0454 12.2894 57.0001 27.8199C56.9549 43.2605 44.4541 55.7299 28.9188 55.7299C13.4288 55.6849 0.928101 43.2154 0.928101 27.865ZM13.7459 28.2251C13.7459 30.656 13.7006 33.0868 13.7912 35.5627C13.8364 37.3633 14.4705 38.9389 15.6934 40.3344C17.5051 42.4052 19.8603 43.2605 22.5326 43.2605C26.7448 43.3055 30.957 43.3055 35.2145 43.2605C37.0715 43.2605 38.8379 42.8103 40.3778 41.6849C42.7783 39.9743 43.82 37.5884 43.8653 34.7524C43.9106 30.4759 43.9106 26.2444 43.9106 21.9678C43.9106 20.4823 43.6842 19.0418 43.0048 17.6913C41.5101 14.8553 39.0643 13.2797 35.8486 13.2347C31.2287 13.0997 26.6089 13.1447 21.9891 13.2347C17.5957 13.2797 14.0629 16.6109 13.8364 21.0225C13.6553 23.3633 13.7459 25.7942 13.7459 28.2251Z" fill="white"/>
<path d="M28.7829 40.3794C26.5635 40.3794 24.3442 40.4695 22.1249 40.3794C18.6373 40.2444 16.4633 37.9486 16.418 34.4373C16.3727 31.0611 16.418 27.6399 16.418 24.2637C16.418 23.0932 16.418 21.9228 16.5086 20.7524C16.7804 18.0064 18.5468 16.2508 21.3096 15.9357C22.3966 15.8006 23.4836 15.8457 24.5707 15.8457C28.1035 15.8457 31.6816 15.8006 35.2144 15.8457C38.7472 15.8907 41.1024 18.2765 41.1024 21.7878C41.1024 26.0193 41.1024 30.2508 41.1024 34.4823C41.1024 36.418 40.5136 38.0836 38.8831 39.299C37.6602 40.1994 36.2108 40.4244 34.7162 40.4244C32.7686 40.4244 30.7757 40.4244 28.7829 40.3794C28.7829 40.4244 28.7829 40.4244 28.7829 40.3794ZM28.7376 35.7428C33.1309 35.7428 36.6185 32.3215 36.5732 28.045C36.5732 23.8585 32.9951 20.3923 28.7829 20.3923C24.3895 20.3923 20.9473 23.9035 20.9926 28.2251C21.0378 32.3666 24.5254 35.7878 28.7376 35.7428ZM38.6113 20.0322C38.6113 18.9968 37.7961 18.1865 36.7996 18.1865C35.8032 18.1865 34.9879 18.9968 34.9879 20.0322C34.9879 21.0225 35.7579 21.7878 36.7543 21.7878C37.8413 21.8328 38.6113 21.0675 38.6113 20.0322Z" fill="white"/>
<path d="M23.7103 28.045C23.7103 25.344 25.9749 23.0932 28.7378 23.0482C31.5006 23.0482 33.7652 25.299 33.7652 28.045C33.7652 30.746 31.5006 32.9968 28.8284 33.0418C25.9749 33.0868 23.7103 30.881 23.7103 28.045Z" fill="white"/>
</svg>
